<?xml version="1.0" encoding="UTF-8" standalone="no"?>
<svg version="1.1" xmlns="http://www.w3.org/2000/svg" xmlns:xlink="http://www.w3.org/1999/xlink" xmlns:i="http://ns.adobe.com/AdobeIllustrator/10.0/" width="272.823" height="272.823">
	<g id="dp_dp001" transform="matrix(1,0,0,1,21.9853,21.9853)">
		<image id="dp_image002" fill="none" x="-21.9853" y="-21.9853" width="272.823" height="272.823" xlink:href="PageD20A_images/PageD20A_001.png"/>
		<path id="dp_path003" fill="#006c00" fill-rule="evenodd" stroke="none" stroke-width="0" d="M 190.693,158.677 C 190.693,157.588 190.604,156.787 190.404,156.297 C 190.117,155.493 188.204,154.028 184.665,151.889 C 181.151,149.755 176.743,147.307 171.493,144.527 L 163.595,140.209 C 163.081,139.899 162.147,139.253 160.747,138.275 C 159.367,137.273 158.121,136.539 157.032,136.029 C 155.943,135.539 154.893,135.295 153.893,135.295 C 152.115,135.295 149.779,136.895 146.909,140.123 C 144.016,143.347 141.192,146.617 138.408,149.889 C 135.629,153.159 133.449,154.804 131.845,154.804 C 131.156,154.804 130.332,154.628 129.397,154.293 C 128.441,153.939 127.687,153.604 127.087,153.315 C 126.483,153.024 125.637,152.535 124.548,151.889 C 123.459,151.245 122.768,150.824 122.479,150.645 C 112.647,145.172 104.169,138.899 97.0707,131.78 C 89.9733,124.683 83.68,116.225 78.2267,106.393 C 78.0267,106.083 77.6027,105.393 76.9573,104.3 C 76.3133,103.211 75.8227,102.365 75.5333,101.765 C 75.2467,101.165 74.9133,100.407 74.5787,99.4507 C 74.2227,98.516 74.044,97.692 74.044,97.0027 C 74.044,95.712 75.068,94.0427 77.092,91.9987 C 79.1413,89.9733 81.3653,88.06 83.8107,86.28 C 86.2347,84.476 88.484,82.5213 90.508,80.3853 C 92.5573,78.248 93.5573,76.448 93.5573,74.9547 C 93.5573,73.9533 93.312,72.9093 92.8227,71.8187 C 92.332,70.7293 91.5773,69.4813 90.5733,68.1053 C 89.5973,66.7013 88.9493,65.7667 88.6387,65.2773 C 88.3493,64.6773 87.5933,63.252 86.4147,61.028 C 85.2147,58.7787 83.9893,56.5333 82.7,54.2387 C 81.4107,51.9493 80.072,49.5907 78.7373,47.1653 C 77.4027,44.7173 76.1573,42.7173 75.0227,41.1373 C 73.868,39.5333 73.064,38.644 72.5533,38.444 C 72.064,38.244 71.264,38.1547 70.1747,38.1547 C 65.4107,38.1547 60.3827,39.244 55.132,41.4267 C 50.5493,43.5173 46.5893,48.2107 43.2067,55.508 C 39.8227,62.808 38.1333,69.2813 38.1333,74.9547 C 38.1333,76.5333 38.268,78.2267 38.5133,80.0067 C 38.7573,81.8067 39.0027,83.3213 39.268,84.5653 C 39.5133,85.7907 39.9573,87.4347 40.6027,89.484 C 41.248,91.508 41.7373,92.9773 42.092,93.8667 C 42.4267,94.7573 43.052,96.4027 43.9413,98.7853 C 44.852,101.165 45.3867,102.655 45.5867,103.255 C 51.5493,119.54 62.2973,135.471 77.848,151 C 93.4013,166.555 109.308,177.299 125.593,183.261 C 126.196,183.461 127.687,184.02 130.065,184.911 C 132.445,185.8 134.095,186.42 134.984,186.755 C 135.873,187.111 137.343,187.6 139.367,188.245 C 141.412,188.889 143.057,189.359 144.281,189.604 C 145.531,189.849 147.041,190.093 148.844,190.339 C 150.624,190.584 152.315,190.715 153.893,190.715 C 159.567,190.715 166.04,189.024 173.34,185.644 C 180.637,182.261 185.335,178.303 187.424,173.74 C 189.604,168.465 190.693,163.436 190.693,158.677 Z M 228.851,42.9173 L 228.851,185.955 C 228.851,197.767 224.647,207.869 216.26,216.256 C 207.869,224.668 197.747,228.851 185.935,228.851 L 42.9173,228.851 C 31.08,228.851 20.9787,224.668 12.592,216.256 C 4.204,207.869 0,197.767 0,185.955 L 0,42.9173 C 0,31.1013 4.204,21.0027 12.592,12.592 C 20.9787,4.204 31.08,0 42.9173,0 L 185.935,0 C 197.747,0 207.869,4.204 216.26,12.592 C 224.647,21.0027 228.851,31.1013 228.851,42.9173 Z "/>
	</g>
</svg>